<svg width="11" height="4" viewBox="0 0 11 4" fill="none" xmlns="http://www.w3.org/2000/svg">
<path d="M1.53469 3.096C1.15069 3.096 0.820021 2.96267 0.542688 2.696C0.276021 2.41867 0.142688 2.088 0.142688 1.704C0.142688 1.32 0.276021 0.994667 0.542688 0.728C0.820021 0.461333 1.15069 0.328 1.53469 0.328C1.91869 0.328 2.24402 0.461333 2.51069 0.728C2.77735 0.994667 2.91069 1.32 2.91069 1.704C2.91069 2.088 2.77735 2.41867 2.51069 2.696C2.24402 2.96267 1.91869 3.096 1.53469 3.096ZM5.51156 3.096C5.12756 3.096 4.7969 2.96267 4.51956 2.696C4.2529 2.41867 4.11956 2.088 4.11956 1.704C4.11956 1.32 4.2529 0.994667 4.51956 0.728C4.7969 0.461333 5.12756 0.328 5.51156 0.328C5.89556 0.328 6.2209 0.461333 6.48756 0.728C6.75423 0.994667 6.88756 1.32 6.88756 1.704C6.88756 2.088 6.75423 2.41867 6.48756 2.696C6.2209 2.96267 5.89556 3.096 5.51156 3.096ZM9.48844 3.096C9.10444 3.096 8.77377 2.96267 8.49644 2.696C8.22977 2.41867 8.09644 2.088 8.09644 1.704C8.09644 1.32 8.22977 0.994667 8.49644 0.728C8.77377 0.461333 9.10444 0.328 9.48844 0.328C9.87244 0.328 10.1978 0.461333 10.4644 0.728C10.7311 0.994667 10.8644 1.32 10.8644 1.704C10.8644 2.088 10.7311 2.41867 10.4644 2.696C10.1978 2.96267 9.87244 3.096 9.48844 3.096Z" fill="#475569"/>
</svg>
