<svg width="24" height="22" viewBox="0 0 24 22" fill="none" xmlns="http://www.w3.org/2000/svg">
<path d="M22.2237 1.79769L22.2237 1.79769C21.6621 1.22308 20.9003 0.9 20.1053 0.9L3.89468 0.899999C3.09968 0.899999 2.3378 1.2231 1.77626 1.79769L1.84778 1.86758L1.77626 1.79769C1.21501 2.372 0.899933 3.15072 0.899933 3.96211L0.899932 13.9619C0.899932 14.7733 1.21502 15.552 1.77626 16.1263C2.3378 16.7009 3.09968 17.024 3.89468 17.024L5.92095 17.024C6.29815 17.024 6.60005 16.7118 6.60005 16.3316C6.60005 15.9512 6.29812 15.6392 5.92095 15.6392L3.89468 15.6392C3.46139 15.6392 3.04526 15.463 2.7381 15.1487C2.4309 14.8343 2.25794 14.4074 2.25794 13.9619L2.25794 3.96212C2.25794 3.51641 2.43089 3.08972 2.7381 2.77513C3.04523 2.46085 3.46137 2.28476 3.89468 2.28476L20.1053 2.28476C20.5386 2.28476 20.9547 2.46086 21.2618 2.77513C21.569 3.0897 21.742 3.51642 21.742 3.96212L21.742 13.9619C21.742 14.4074 21.569 14.8343 21.2618 15.1487C20.9547 15.463 20.5385 15.6392 20.1053 15.6392L18.079 15.6392C17.7018 15.6392 17.3999 15.9512 17.3999 16.3316C17.3999 16.7118 17.7018 17.024 18.079 17.024L20.1053 17.024C20.9003 17.024 21.6621 16.7009 22.2237 16.1263C22.7849 15.552 23.1 14.7733 23.1 13.9619L23.1 3.96211C23.1 3.15072 22.7849 2.372 22.2237 1.79769Z" fill="#001D35" stroke="#001D35" stroke-width="0.2"/>
<path d="M6.8744 10.9565L11.5141 6.14096L6.8744 10.9565ZM6.8744 10.9565L6.85403 10.9775C6.58924 11.2497 6.58988 11.689 6.85572 11.9601C7.1228 12.2324 7.55606 12.2316 7.82238 11.9584L7.82286 11.9579L11.3213 8.31876L11.3213 20.4076C11.3213 20.788 11.623 21.1 12.0002 21.1C12.3774 21.1 12.6791 20.788 12.6791 20.4076L12.6791 20.326L12.6791 20.326L12.6791 8.31875L16.1775 11.9579L16.1776 11.958C16.4413 12.2314 16.8725 12.2347 17.1399 11.9648C17.4061 11.6963 17.4088 11.259 17.1467 10.9868L12.4834 6.14096L6.8744 10.9565Z" fill="#001D35" stroke="#001D35" stroke-width="0.2"/>
</svg>
