<svg width="24" height="22" viewBox="0 0 24 22" fill="none" xmlns="http://www.w3.org/2000/svg">
<path d="M1.77633 20.2023L1.77633 20.2023C2.33787 20.7769 3.09975 21.1 3.89475 21.1L20.1053 21.1C20.9003 21.1 21.6622 20.7769 22.2237 20.2023L22.1522 20.1324L22.2237 20.2023C22.785 19.628 23.1001 18.8493 23.1001 18.0379L23.1001 8.03813C23.1001 7.22674 22.785 6.44802 22.2237 5.87371C21.6622 5.2991 20.9003 4.97602 20.1053 4.97602L18.0791 4.97602C17.7018 4.97602 17.3999 5.28825 17.3999 5.66839C17.3999 6.04877 17.7019 6.36076 18.0791 6.36076L20.1053 6.36076C20.5386 6.36076 20.9547 6.53704 21.2619 6.85134C21.5691 7.16569 21.7421 7.5926 21.7421 8.03812L21.7421 18.0379C21.7421 18.4836 21.5691 18.9103 21.2619 19.2249C20.9548 19.5391 20.5386 19.7152 20.1053 19.7152L3.89475 19.7152C3.46143 19.7152 3.04531 19.5391 2.73817 19.2249C2.43095 18.9103 2.25801 18.4836 2.25801 18.0379L2.25801 8.03812C2.25801 7.5926 2.43097 7.1657 2.73817 6.85133C3.04532 6.53704 3.46147 6.36076 3.89475 6.36076L5.92102 6.36076C6.2982 6.36076 6.60012 6.04876 6.60012 5.66839C6.60012 5.28823 6.29822 4.97602 5.92102 4.97602L3.89475 4.97602C3.09975 4.97602 2.33787 5.29912 1.77633 5.8737C1.21508 6.44802 0.9 7.22674 0.9 8.03813L0.9 18.0379C0.9 18.8493 1.21509 19.628 1.77633 20.2023Z" fill="#001D35" stroke="#001D35" stroke-width="0.2"/>
<path d="M17.1256 11.0435L12.4859 15.859L17.1256 11.0435ZM17.1256 11.0435L17.146 11.0225C17.4108 10.7503 17.4101 10.311 17.1443 10.0399C16.8772 9.76757 16.4439 9.76838 16.1776 10.0416L16.1771 10.0421L12.6787 13.6812L12.6787 1.59237C12.6787 1.21203 12.377 0.899998 11.9998 0.899998C11.6226 0.899998 11.3209 1.21205 11.3209 1.59237L11.3209 1.67398L11.3209 1.67398L11.3209 13.6812L7.82248 10.0421L7.82238 10.042C7.55873 9.76858 7.12749 9.76534 6.86013 10.0352C6.59385 10.3037 6.59118 10.741 6.85328 11.0132L11.5166 15.859L17.1256 11.0435Z" fill="#001D35" stroke="#001D35" stroke-width="0.2"/>
</svg>
