<svg width="27" height="26" viewBox="0 0 27 26" fill="none" xmlns="http://www.w3.org/2000/svg">
<path d="M12.4063 22.7457L12.4603 22.7501V22.6958V21.0708V21.0261L12.4158 21.0211C10.6403 20.8239 9.162 20.0712 7.97864 18.7623C6.79543 17.4536 6.20405 15.9038 6.20405 14.1104C6.20405 12.9451 6.48184 11.8474 7.03765 10.8164C7.59306 9.78623 8.37206 8.97593 9.37527 8.38475L9.43089 8.35197L9.38524 8.30632L8.22066 7.14174L8.19157 7.11265L8.15742 7.13559C6.99497 7.91661 6.09104 8.92499 5.44619 10.1602C4.80147 11.3952 4.47905 12.7121 4.47905 14.1104C4.47905 16.3798 5.24203 18.342 6.76731 19.9943C8.29246 21.6466 10.1729 22.5641 12.4063 22.7457ZM13.9853 22.6958V22.7501L14.0394 22.7457C16.2728 22.5641 18.1487 21.6466 19.6649 19.9942C21.1811 18.3418 21.9395 16.3797 21.9395 14.1104C21.9395 11.6959 21.0947 9.63844 19.4062 7.94079C17.7175 6.24299 15.6553 5.39376 13.2228 5.39376H12.8018L14.3415 3.85411L14.3768 3.81876L14.3415 3.7834L13.1769 2.61882L13.1416 2.58346L13.1062 2.61882L9.50411 6.2209L9.46876 6.25626L9.50411 6.29161L13.1062 9.8937L13.1416 9.92905L13.1769 9.8937L14.3415 8.72911L14.3768 8.69376L14.3415 8.6584L12.8018 7.11876H13.2228C15.1779 7.11876 16.8307 7.7953 18.1843 9.14891C19.5379 10.5025 20.2145 12.1553 20.2145 14.1104C20.2145 15.904 19.632 17.4493 18.4668 18.7489C17.3016 20.0486 15.8233 20.8059 14.0293 21.0212L13.9853 21.0265V21.0708V22.6958Z" fill="white" stroke="white" stroke-width="0.1"/>
</svg>
