<svg width="26" height="26" viewBox="0 0 26 26" fill="none" xmlns="http://www.w3.org/2000/svg">
<path d="M12.9999 17.0625C14.2819 17.0625 15.3697 16.6156 16.2635 15.7219C17.1572 14.8281 17.6041 13.7403 17.6041 12.4583C17.6041 11.1764 17.1572 10.0885 16.2635 9.19479C15.3697 8.30104 14.2819 7.85416 12.9999 7.85416C11.718 7.85416 10.6301 8.30104 9.73638 9.19479C8.84263 10.0885 8.39575 11.1764 8.39575 12.4583C8.39575 13.7403 8.84263 14.8281 9.73638 15.7219C10.6301 16.6156 11.718 17.0625 12.9999 17.0625ZM12.9999 15.4917C12.1513 15.4917 11.4336 15.1983 10.8468 14.6115C10.26 14.0246 9.96659 13.3069 9.96659 12.4583C9.96659 11.6097 10.26 10.892 10.8468 10.3052C11.4336 9.7184 12.1513 9.42499 12.9999 9.42499C13.8485 9.42499 14.5662 9.7184 15.153 10.3052C15.7398 10.892 16.0333 11.6097 16.0333 12.4583C16.0333 13.3069 15.7398 14.0246 15.153 14.6115C14.5662 15.1983 13.8485 15.4917 12.9999 15.4917ZM12.9999 20.5833C10.3638 20.5833 7.98047 19.834 5.84992 18.3354C3.71936 16.8368 2.13047 14.8778 1.08325 12.4583C2.13047 10.0389 3.71936 8.07986 5.84992 6.58124C7.98047 5.08263 10.3638 4.33333 12.9999 4.33333C15.636 4.33333 18.0194 5.08263 20.1499 6.58124C22.2805 8.07986 23.8694 10.0389 24.9166 12.4583C23.8694 14.8778 22.2805 16.8368 20.1499 18.3354C18.0194 19.834 15.636 20.5833 12.9999 20.5833Z" fill="white"/>
</svg>
